PathFileType	3	(X/Y/Z)	running_1__fused_aligned.trc
DataRate	CameraRate	NumFrames	NumMarkers	Units	OrigDataRate	OrigDataStartFrame	OrigNumFrames
100.0	100.0	6	19	mm	100.0	2638	6379
Frame#	Time	pelvis			neck			head			hip_left			hip_right			knee_left			knee_right			ankle_left			ankle_right			heel_left			heel_right			toe_left			toe_right			shoulder_left			shoulder_right			elbow_left			elbow_right			wrist_left			wrist_right			
		X1	Y1	Z1	X2	Y2	Z2	X3	Y3	Z3	X4	Y4	Z4	X5	Y5	Z5	X6	Y6	Z6	X7	Y7	Z7	X8	Y8	Z8	X9	Y9	Z9	X10	Y10	Z10	X11	Y11	Z11	X12	Y12	Z12	X13	Y13	Z13	X14	Y14	Z14	X15	Y15	Z15	X16	Y16	Z16	X17	Y17	Z17	X18	Y18	Z18	X19	Y19	Z19	
2638	26.37000	-37.310808	948.790404	177.280687	-60.854946	1496.578587	301.598090	-59.993144	1584.459664	447.195962	38.586591	949.322651	172.890818	-113.208231	948.258188	181.670447	75.629625	540.051229	273.317635	-129.044484	531.104216	266.909575	52.179032	269.563276	12.528933	-142.211883	139.095695	149.008690	43.357112	256.818806	-37.179812	-144.865324	93.487300	109.844417	61.010345	118.365284	92.376109	-128.732020	73.409266	326.146644	105.795595	1476.735952	244.704272	-228.030270	1443.528215	262.832280	205.354985	1261.651563	121.781783	-313.487198	1193.318733	183.607228	168.929367	1129.491598	270.952124	-255.234705	1078.076189	358.860723
2639	26.38000	-36.921833	948.201526	177.426411	-60.126502	1495.983472	301.725368	-58.761739	1583.902209	447.317882	39.028630	948.691322	173.306237	-112.872352	947.711755	181.546509	75.542826	540.769993	281.279026	-130.688601	528.901735	260.304648	52.928508	267.596497	25.666834	-144.382813	142.211669	135.270809	44.454980	253.993805	-23.542795	-146.834094	98.140544	95.608956	60.277583	119.447751	107.824305	-131.665423	73.048210	307.744497	105.887707	1476.671958	243.302224	-227.656287	1442.190936	264.343518	204.538449	1263.822421	114.583498	-311.758284	1189.886158	189.174897	174.937470	1125.137501	261.818015	-249.081413	1080.844950	367.069605
2640	26.39000	-36.532858	947.612648	177.572135	-59.398059	1495.388358	301.852646	-57.530335	1583.344754	447.439803	39.470670	948.059992	173.721657	-112.536474	947.165323	181.422571	75.456027	541.488757	289.240418	-132.332719	526.699254	253.699721	53.677983	265.629718	38.804735	-146.553744	145.327643	121.532928	45.552848	251.168804	-9.905778	-148.802864	102.793788	81.373494	59.544820	120.530217	123.272501	-134.598825	72.687154	289.342350	105.979820	1476.607963	241.900176	-227.282304	1440.853657	265.854756	203.721912	1265.993279	107.385212	-310.029370	1186.453583	194.742565	180.945573	1120.783404	252.683907	-242.928121	1083.613710	375.278488
2641	26.40000	-36.143883	947.023770	177.717859	-58.669616	1494.793243	301.979923	-56.298930	1582.787299	447.561723	39.912709	947.428663	174.137076	-112.200596	946.618890	181.298633	75.369228	542.207520	297.201810	-133.976836	524.496773	247.094795	54.427459	263.662939	51.942636	-148.724675	148.443617	107.795048	46.650716	248.343803	3.731239	-150.771634	107.447032	67.138033	58.812058	121.612684	138.720698	-137.532227	72.326098	270.940203	106.071932	1476.543968	240.498129	-226.908322	1439.516378	267.365994	202.905376	1268.164137	100.186926	-308.300456	1183.021008	200.310233	186.953676	1116.429307	243.549798	-236.774829	1086.382471	383.487370
2642	26.41000	-35.754909	946.434892	177.863583	-57.941172	1494.198129	302.107201	-55.067525	1582.229844	447.683643	40.354749	946.797333	174.552495	-111.864717	946.072458	181.174694	75.282429	542.926284	305.163201	-135.620953	522.294292	240.489868	55.176934	261.696159	65.080537	-150.895606	151.559591	94.057167	47.748585	245.518803	17.368255	-152.740405	112.100276	52.902572	58.079296	122.695150	154.168894	-140.465630	71.965041	252.538056	106.164045	1476.479973	239.096081	-226.534339	1438.179099	268.877232	202.088840	1270.334994	92.988640	-306.571542	1179.588433	205.877902	192.961779	1112.075211	234.415689	-230.621538	1089.151232	391.696253
2643	26.42000	-35.365934	945.846014	178.009306	-57.212729	1493.603015	302.234479	-53.836120	1581.672389	447.805564	40.796789	946.166004	174.967915	-111.528839	945.526025	181.050756	75.195630	543.645048	313.124593	-137.265071	520.091811	233.884941	55.926410	259.729380	78.218438	-153.066537	154.675565	80.319286	48.846453	242.693802	31.005272	-154.709175	116.753520	38.667110	57.346533	123.777617	169.617091	-143.399032	71.603985	234.135909	106.256158	1476.415978	237.694033	-226.160356	1436.841821	270.388469	201.272304	1272.505852	85.790354	-304.842628	1176.155858	211.445570	198.969881	1107.721114	225.281581	-224.468246	1091.919992	399.905135
